<?xml version="1.0" encoding="utf-8"?>
<!-- Generator: Adobe Illustrator 16.0.3, SVG Export Plug-In . SVG Version: 6.00 Build 0)  -->
<!DOCTYPE svg PUBLIC "-//W3C//DTD SVG 1.1//EN" "http://www.w3.org/Graphics/SVG/1.1/DTD/svg11.dtd">
<svg version="1.1" xmlns="http://www.w3.org/2000/svg" xmlns:xlink="http://www.w3.org/1999/xlink" x="0px" y="0px" width="500px"
	 height="500px" viewBox="0 0 500 500" enable-background="new 0 0 500 500" xml:space="preserve">
<g id="フォント" display="none">
	
		<text transform="matrix(1 0 0 1 75.3101 304.9307)" fill="#FFFFFF" stroke="#FFFFFF" stroke-width="3" stroke-miterlimit="10" font-family="'NotoSerifJP-ExtraLight'" font-size="125">SILVA</text>
	<text transform="matrix(1 0 0 1 136.0317 366.457)" fill="#FFFFFF" font-family="'NotoSerifJP-ExtraLight'" font-size="48">Resorthub</text>
</g>
<g id="背景" display="none">
	<rect display="inline" fill-rule="evenodd" clip-rule="evenodd" fill="#FCEE21" width="500" height="500"/>
</g>
<g id="白色ロゴ" display="none">
	<g display="inline">
		<path fill-rule="evenodd" clip-rule="evenodd" fill="#FFFFFF" d="M233.456,100.708c-2.91,1.428-4.068,2.586-5.497,5.497
			c-1.428-2.91-2.586-4.068-5.497-5.497c2.91-1.428,4.068-2.586,5.497-5.497C229.387,98.122,230.545,99.28,233.456,100.708z"/>
	</g>
	<g display="inline">
		<path fill-rule="evenodd" clip-rule="evenodd" fill="#FFFFFF" d="M300.455,126.708c-2.91,1.428-4.067,2.586-5.496,5.497
			c-1.429-2.91-2.586-4.068-5.496-5.497c2.91-1.428,4.067-2.586,5.496-5.497C296.388,124.122,297.545,125.28,300.455,126.708z"/>
	</g>
	<g display="inline">
		<path fill-rule="evenodd" clip-rule="evenodd" fill="#FFFFFF" d="M307.455,150.708c-2.91,1.428-4.067,2.586-5.496,5.497
			c-1.429-2.91-2.586-4.068-5.496-5.497c2.91-1.428,4.067-2.586,5.496-5.497C303.388,148.122,304.545,149.28,307.455,150.708z"/>
	</g>
	<path display="inline" fill-rule="evenodd" clip-rule="evenodd" fill="#FFFFFF" d="M55.349,318.578
		c4.114-1.713,5.163,0.421,6.127,3.604c7.507,24.774,18.652,47.729,34.84,68.056c33.968,42.654,77.725,68.689,131.764,76.839
		c84.417,12.73,166.19-31.091,205.698-101.565c7.764-13.851,14.348-28.188,18.479-43.564c0.844-3.139,2.018-5.328,5.785-3.651
		c-14.97,69.434-84.925,149.011-187.739,155.531C162.786,480.645,76.86,405.861,55.349,318.578z"/>
	<path display="inline" fill-rule="evenodd" clip-rule="evenodd" fill="#FFFFFF" d="M458.471,202.696
		c-4.123,1.679-4.877-0.784-5.718-3.569c-5.457-18.083-12.411-35.527-22.601-51.531c-32.057-50.348-76.99-81.893-135.779-93.648
		C197.039,34.485,98.4,91.642,65.135,186.052c-1.548,4.393-2.864,8.867-4.277,13.307c-1.131,3.553-1.123,3.556-5.227,2.457
		C70.123,133.649,139.231,47.07,253.715,45.342C362.896,43.694,440.442,122.595,458.471,202.696z"/>
	<path display="inline" fill-rule="evenodd" clip-rule="evenodd" fill="#FFFFFF" d="M78.984,283.156
		c3.87-1.743,5.473-0.672,6.816,2.435c2.036,4.71,4.354,9.357,7.086,13.694c7.544,11.977,26.886,10.384,34.022,4.268
		c8.135-6.973,7.881-21.03-1.058-27.566c-3.572-2.611-7.873-4.255-11.912-6.193c-6.888-3.308-14.257-5.825-20.67-9.871
		c-17.664-11.144-16.031-37.036,2.767-46.218c13.169-6.433,26.579-4.665,39.799,0.118c1.265,0.458,2.722,2.22,2.898,3.536
		c0.833,6.239,1.252,12.533,1.816,18.779c-3.213,1.697-4.931,1.537-6.129-1.81c-1.395-3.896-3.053-7.783-5.206-11.303
		c-4.073-6.66-12.052-9.324-20.697-7.435c-7.739,1.691-12.941,6.962-13.844,14.491c-0.842,7.021,1.622,12.907,7.478,16.897
		c3.408,2.323,7.282,3.986,11.017,5.801c7.029,3.417,14.382,6.261,21.112,10.18c16.447,9.579,15.401,32.503,1.978,42.943
		c-4.856,3.777-10.327,5.989-16.313,7.123c-11.495,2.177-22.531,0.018-33.429-3.48c-2.903-0.932-4.643-2.468-4.918-5.972
		C81.064,296.799,79.906,290.073,78.984,283.156z"/>
	<path display="inline" fill-rule="evenodd" clip-rule="evenodd" fill="#FFFFFF" d="M416.981,277.167c-12.142,0-23.748,0-35.644,0
		c-2.581,6.964-5.286,13.752-7.601,20.671c-1.786,5.337-0.765,7.279,4.634,8.887c2.677,0.798,3.051,2.096,2.216,4.781
		c-8.29,0-16.674,0-25.152,0c-0.907-1.992-1.103-3.697,1.28-4.494c6.554-2.191,9.432-7.561,11.716-13.418
		c5.259-13.484,10.457-26.992,15.683-40.489c4.985-12.877,10.008-25.739,14.928-38.642c0.852-2.235,1.825-3.585,4.568-3.604
		c2.861-0.02,3.623,1.636,4.448,3.763c9.99,25.746,20.016,51.478,30.044,77.209c0.967,2.479,2.012,4.928,3.025,7.389
		c1.543,3.744,4.029,6.582,8.087,7.498c2.744,0.62,3.036,2.12,2.118,4.804c-10.941,0-22,0-33.067,0
		c-1.135-2.502-0.414-3.669,2.033-4.607c5.108-1.958,6.111-3.742,4.458-8.729C422.408,291.109,419.602,284.184,416.981,277.167z
		 M399.399,230.793c-0.329,0.033-0.658,0.065-0.987,0.099c-4.832,13.225-9.665,26.45-14.567,39.865c10.454,0,20.177,0,30.745,0
		C409.36,256.999,404.38,243.896,399.399,230.793z"/>
	<path display="inline" fill-rule="evenodd" clip-rule="evenodd" fill="#FFFFFF" d="M322.903,292.55
		c0.931-2.004,1.548-3.132,1.995-4.323c7.195-19.174,14.37-38.354,21.543-57.536c0.408-1.091,0.791-2.193,1.138-3.306
		c2.189-7.035,1.652-8.06-5.084-10.933c-0.972-0.415-1.579-1.684-2.354-2.558c0.9-0.718,1.787-2.039,2.703-2.059
		c7.474-0.169,14.954-0.095,22.482-0.095c1.096,2.584,0.951,4.203-1.623,4.999c-4.567,1.413-7,4.914-8.632,9.079
		c-4.372,11.16-8.671,22.349-13.001,33.525c-6.375,16.456-12.746,32.913-19.135,49.364c-0.776,1.999-1.341,4.167-4.25,4.144
		c-2.003-0.016-3.61-0.323-4.365-2.451c-0.835-2.353-1.719-4.688-2.624-7.016c-10.019-25.758-20.059-51.508-30.059-77.273
		c-1.706-4.395-4.145-7.871-9.013-9.285c-0.974-0.283-1.499-2.108-2.23-3.222c0.887-0.56,1.768-1.596,2.66-1.606
		c10.126-0.115,20.253-0.073,30.168-0.073c1.287,2.602,0.646,3.676-1.532,4.633c-6.177,2.711-6.74,4.035-4.332,10.348
		c8.015,21,16.127,41.961,24.212,62.934C321.807,290.453,322.147,291.024,322.903,292.55z"/>
	<path display="inline" fill-rule="evenodd" clip-rule="evenodd" fill="#FFFFFF" d="M242.274,211.85
		c1.231,2.913,0.512,3.898-1.819,4.602c-8.391,2.532-8.632,3.073-8.634,11.94c-0.005,23.819-0.06,47.639-0.093,71.458
		c-0.008,6.048-0.005,6.055,6.021,6.047c5.33-0.007,10.661-0.005,15.99-0.052c9.483-0.085,16.23-4.229,19.646-13.304
		c0.879-2.336,1.862-4.633,2.766-6.96c0.82-2.114,2.242-2.745,5.108-1.543c-0.425,4.796-0.853,9.852-1.326,14.903
		c-0.264,2.817-0.841,5.627-0.849,8.442c-0.01,3.512-1.574,4.509-4.912,4.47c-14.49-0.168-28.982-0.141-43.474-0.17
		c-7.639-0.016-15.278-0.003-22.984-0.003c-1.406-2.521-0.479-3.615,1.889-4.471c6.316-2.283,7.587-3.957,7.614-10.601
		c0.095-23.819,0.101-47.639,0.077-71.458c-0.005-5.5-1.202-6.906-6.539-8.486c-0.638-0.188-1.49-0.119-1.897-0.52
		c-0.719-0.708-1.502-1.649-1.602-2.564c-0.053-0.486,1.216-1.486,1.992-1.613c1.624-0.265,3.317-0.116,4.982-0.117
		C223.538,211.848,232.845,211.85,242.274,211.85z"/>
	<path display="inline" fill-rule="evenodd" clip-rule="evenodd" fill="#FFFFFF" d="M294.686,177.242
		c-17.817,11.221-35.849,10.13-54.167-0.277c-2.283,3.629-4.455,7.149-6.704,10.618c-0.721,1.112-1.503,2.278-2.528,3.066
		c-0.748,0.575-1.94,0.57-2.935,0.824c0.059-0.999-0.222-2.203,0.236-2.962c1.97-3.271,4.34-6.308,6.219-9.625
		c2.391-4.219,1.956-5.364-2.187-8.065c-2.088-1.361-4.191-2.7-6.275-4.068c-7.056-4.629-11.135-11.411-13.291-19.318
		c-2.348-8.614-1.791-17.316-0.328-26.886c6.103,4.335,11.36,8.069,17.384,12.349c5.06-22.787,18.809-36.926,41.212-42.48
		c-6.066,8.705-11.642,17.534-15.729,27.503c6.321-4.273,12.642-8.546,20.13-13.608c0.405,4.113,1.092,6.992,0.899,9.81
		c-1.098,16.067-7.508,29.24-21.74,37.701c-3.098,1.841-3.355,3.637-1.679,6.414c6.473,10.721,15.71,17.015,28.406,17.606
		c3.311,0.154,6.644-0.235,9.968-0.305c1.044-0.021,2.094,0.187,3.142,0.29C294.707,176.299,294.696,176.771,294.686,177.242z
		 M230.459,138.395c-0.779,3.344-1.615,6.676-2.317,10.036c-0.545,2.611-0.048,4.989,1.594,7.049
		c4.675-5.765,5.516-11.351,0.673-17.001c-3.219-2.551-6.438-5.103-9.658-7.654c-0.386,0.31-0.771,0.619-1.156,0.928
		c1.855,4.847,3.711,9.694,5.678,14.832C227.623,143.884,226.196,139.322,230.459,138.395z M238.266,170.115
		c0.458-0.163,0.917-0.326,1.375-0.488c3.105-6.393,5.139-13.793,5.13-21.145c-0.02-17.385,5.302-33.005,14.977-47.288
		c0.746-1.101,1.299-2.333,2.417-4.371c-16.305,8.427-25.313,20.892-28.279,37.696c-0.264,1.491,0.505,3.48,1.418,4.81
		c4.306,6.264,5.803,12.977,3.869,20.364c-0.588,2.247-1.597,4.409-1.95,6.682C237.043,167.54,237.885,168.863,238.266,170.115z
		 M276.592,179.841c-12.487-3.446-22.381-10.168-28.456-22.687c-2.088,5.971-3.816,10.912-5.594,15.996
		C253.159,180.536,264.348,182.698,276.592,179.841z M272.438,110.327c-7.003,5.141-13.465,9.674-19.628,14.583
		c-1.271,1.013-1.425,3.43-2.094,5.201c0.396,0.231,0.792,0.462,1.188,0.693c5.256-3.086,10.356-6.491,15.816-9.162
		C272.289,119.407,273.342,116.077,272.438,110.327z M249.416,141.655c4.591-2.087,8.957-4.334,13.516-6.074
		c5.188-1.98,7.08-5.877,7.769-11.549c-6.244,3.438-11.863,6.874-17.785,9.666C249.34,135.384,248.352,137.583,249.416,141.655z
		 M229.657,163.623c-4.664-10.088-9.328-20.175-14.329-30.99C215.61,145.625,217.857,156.854,229.657,163.623z M251.205,150.349
		c3.993-3.273,8.069-6.615,12.146-9.957c-0.226-0.308-0.452-0.615-0.679-0.923c-3.866,1.752-7.77,3.431-11.588,5.283
		C248.462,146.023,248.283,147.786,251.205,150.349z M233.405,162.541c3.144-4.566,3.588-7.252,1.837-11.437
		C236.324,155.126,230.458,158,233.405,162.541z"/>
	<path display="inline" fill-rule="evenodd" clip-rule="evenodd" fill="#FFFFFF" d="M160.282,212.288
		c0.854-0.133,1.816-0.409,2.778-0.412c9.664-0.037,19.329-0.091,28.991,0.046c1.17,0.017,2.325,1.138,3.486,1.747
		c-0.913,0.914-1.667,2.291-2.765,2.668c-7.12,2.45-7.985,3.533-7.998,11.158c-0.039,23.161-0.074,46.322-0.107,69.483
		c-0.01,6.983,0.907,8.06,7.722,10.128c1.127,0.343,1.945,1.706,2.905,2.598c-1.106,0.684-2.199,1.936-3.319,1.961
		c-9.494,0.213-18.993,0.22-28.49,0.243c-1.596,0.004-3.824,0.354-3.649-2.091c0.069-0.975,1.662-2.248,2.822-2.669
		c6.159-2.234,7.432-3.722,7.44-10.117c0.031-23.661,0.021-47.322-0.009-70.983c-0.008-6.153-1.156-7.695-7.337-9.474
		C160.448,215.911,159.017,215.144,160.282,212.288z"/>
	<path display="inline" fill-rule="evenodd" clip-rule="evenodd" fill="#FFFFFF" d="M71.429,318.481
		c3.242-0.655,3.151,1.631,3.636,3.197c3.901,12.613,8.992,24.706,15.609,36.148c31.541,54.534,78.331,87.006,140.69,96.23
		c70.751,10.467,144.182-21.663,186.134-86.519c8.979-13.879,15.951-28.834,20.874-44.687c0.563-1.813,1.649-3.461,2.494-5.186
		c0.581,0.299,1.163,0.598,1.745,0.896c-5.738,20.6-14.78,39.716-27.282,57.186c-30.882,43.152-72.19,70.878-124.487,80.087
		C181.11,475.157,92.393,400.547,71.429,318.481z"/>
	<path display="inline" fill-rule="evenodd" clip-rule="evenodd" fill="#FFFFFF" d="M441.384,203.454
		c-0.723-1.413-1.672-2.756-2.134-4.25c-6.057-19.57-14.837-37.838-26.756-54.476c-30.968-43.229-72.547-69.632-125.128-78.657
		c-36.004-6.179-70.771-1.858-104.237,12.223c-39.029,16.421-69.278,43.123-90.54,79.844c-7.534,13.012-13.867,26.554-18.002,41.067
		c-0.372,1.306-1.35,2.44-2.379,3.455c-1.867-10.285,16.164-47.789,34.427-70.213c34.156-41.938,78.439-66.367,132.298-71.093
		C347.304,51.846,425.2,128.835,442.51,202.722C442.135,202.966,441.759,203.21,441.384,203.454z"/>
	<path display="inline" fill-rule="evenodd" clip-rule="evenodd" fill="#FFFFFF" d="M155.021,368.4c-5.248,0-9.287,0-13.327,0
		c4.581-3.256,3.346-7.88,3.386-12.101c0.058-5.986,0.21-11.982-0.065-17.956c-0.106-2.297-1.274-4.544-2.192-7.591
		c1.33,0,3.477-0.022,5.624,0.005c3.325,0.043,6.66-0.018,9.973,0.213c5.733,0.4,9.282,2.87,10.254,7.137
		c1.106,4.851-0.953,8.383-4.978,10.977c-0.542,0.349-1.013,0.809-1.702,1.367c3.482,6.031,6.898,11.949,10.209,17.686
		c-5.964,1.632-6.832,1.22-9.816-4.924c-1.379-2.839-3.002-5.562-4.325-8.424c-1.307-2.83-3.242-4.107-6.364-3.251
		C149.295,358.321,150.21,364.557,155.021,368.4z M151.143,333.247c0,5.42,0,10.288,0,15.213c4.561,0.082,9.146,0.715,10.802-3.958
		c0.886-2.501,0.704-6.162-0.542-8.464C159.306,332.163,155.111,332.523,151.143,333.247z"/>
	<path display="inline" fill-rule="evenodd" clip-rule="evenodd" fill="#FFFFFF" d="M314.631,368.617c-2.877,0-6.401,0-10.734,0
		c6.729-5.778,3.337-12.811,3.697-19.187c0.138-2.437-2.155-3.6-4.591-3.602c-2.762-0.002-5.417,1.232-5.664,3.898
		c-0.473,5.106-0.19,10.296,0.024,15.439c0.038,0.89,1.291,1.729,2.413,3.128c-3.878,0-7.2,0-11.971,0
		c4.442-2.384,4.306-5.521,4.268-8.747c-0.092-7.822,0.103-15.649-0.085-23.469c-0.048-2.011-1.084-3.999-1.888-6.761
		c1.535-0.431,3.904-1.096,6.854-1.924c0,6.393,0,12.012,0,18.313c1.985-1.049,3.332-1.885,4.772-2.5
		c5.853-2.501,10.875,0.6,11.174,6.934c0.133,2.824-0.199,5.68,0.072,8.483C313.289,361.902,314.033,365.138,314.631,368.617z"/>
	<path display="inline" fill-rule="evenodd" clip-rule="evenodd" fill="#FFFFFF" d="M348.604,329.118
		c2.242-0.447,4.485-0.895,7.329-1.462c0,6.055,0,11.637,0,17.76c1.364-0.626,2.089-0.939,2.798-1.286
		c6.674-3.269,12.901-0.658,14.813,6.475c1.514,5.645,0.778,11.037-3.763,15.155c-4.059,3.68-8.757,4.398-13.896,2.078
		c-1.179-0.533-2.683-0.347-4.823-0.575c0-1.823-0.002-4.07,0-6.317c0.008-8.154,0.036-16.309,0.014-24.463
		c-0.006-2.566,0.779-5.496-3.636-6.355C347.826,329.791,348.215,329.454,348.604,329.118z M356.031,356.544
		c0,1.499-0.009,2.998,0.002,4.497c0.019,2.614,1.087,4.448,3.739,5.215c2.693,0.777,4.895,0.237,6.635-2.063
		c2.774-3.667,3.162-11.44,0.745-15.246c-1.644-2.589-4.025-3.45-6.89-2.793c-2.763,0.634-4.231,2.49-4.237,5.392
		C356.021,353.212,356.024,354.878,356.031,356.544z"/>
	<path display="inline" fill-rule="evenodd" clip-rule="evenodd" fill="#FFFFFF" d="M334.77,343.757
		c2.305-0.295,4.524-0.578,6.711-0.857c2.542,8.227-1.895,16.8,2.865,24.683c-2.851,0.043-5.803,3.241-8.323-1.076
		c-1.145,0.607-2.264,1.296-3.455,1.817c-6.03,2.637-10.85-0.183-11.215-6.669c-0.206-3.655,0.065-7.339-0.176-10.99
		c-0.144-2.158-0.868-4.277-1.46-7.008c1.576-0.261,3.723-0.615,6.551-1.082c0,6.231-0.236,11.868,0.136,17.465
		c0.121,1.817,1.438,4.208,2.938,5.085c1.332,0.778,3.85,0.218,5.514-0.509c1.063-0.464,2.07-2.269,2.155-3.535
		c0.279-4.147,0.3-8.334,0.042-12.482C336.964,347.162,335.771,345.794,334.77,343.757z"/>
	<path display="inline" fill-rule="evenodd" clip-rule="evenodd" fill="#FFFFFF" d="M246.887,355.436
		c-0.002,7.834-5.539,13.769-12.8,13.722c-7.05-0.046-11.961-5.433-12.004-13.167c-0.044-7.886,5.038-13.688,12.062-13.774
		C241.192,342.13,246.89,348.041,246.887,355.436z M241.667,356.281c-0.757-2.967-1.041-6.032-2.308-8.615
		c-2.295-4.679-7.749-4.698-10.136-0.056c-2.736,5.32-2.58,11.001,0.138,16.244c2.261,4.362,7.57,4.32,9.93,0.019
		C240.516,361.639,240.873,358.927,241.667,356.281z"/>
	<path display="inline" fill-rule="evenodd" clip-rule="evenodd" fill="#FFFFFF" d="M196.125,363.251
		c-3.975,5.402-8.672,7.188-13.718,5.598c-4.674-1.473-7.554-5.933-7.653-11.651c-0.075-4.325,0.976-8.249,3.894-11.518
		c2.912-3.263,7.906-4.332,11.888-2.659c4.011,1.686,5.921,5.384,5.343,11.113c-5.138,0-10.363,0-15.492,0
		C179.229,363.821,184.376,366.753,196.125,363.251z M190.565,351.802c0.137-5.067-1.57-7.646-4.714-7.585
		c-3.115,0.061-5.354,3.058-5.503,7.585C183.617,351.802,186.879,351.802,190.565,351.802z"/>
	<path display="inline" fill-rule="evenodd" clip-rule="evenodd" fill="#FFFFFF" d="M202.334,360.322
		c0.475,1.08,0.909,2.18,1.432,3.235c1.368,2.762,3.833,3.818,6.61,3.232c1.351-0.285,3.116-1.723,3.42-2.953
		c0.293-1.188-0.696-3.211-1.763-4.089c-1.479-1.219-3.557-1.71-5.378-2.513c-4.443-1.958-6.356-5.02-5.518-8.831
		c0.879-3.996,4.297-6.476,9.005-6.218c2.115,0.115,4.202,0.751,6.58,1.203c0,2.008,0,3.746,0,6.304
		c-0.922-1.164-1.499-1.757-1.919-2.445c-1.62-2.653-4.032-3.566-6.814-2.522c-1.185,0.445-2.447,1.858-2.759,3.068
		c-0.233,0.903,0.723,2.592,1.638,3.212c1.757,1.191,3.853,1.889,5.822,2.762c4.509,2,6.422,4.935,5.705,8.793
		c-0.67,3.605-3.974,6.309-8.427,6.417c-2.79,0.067-5.594-0.44-8.618-0.711c0-2.768,0-5.237,0-7.707
		C201.678,360.48,202.006,360.401,202.334,360.322z"/>
	<path display="inline" fill-rule="evenodd" clip-rule="evenodd" fill="#FFFFFF" d="M249.593,344.641
		c7.155-2.356,7.155-2.356,8.956,1.458c1.9-1.244,3.676-2.901,5.767-3.578c1.138-0.368,2.992,0.698,4.155,1.594
		c0.433,0.334,0.167,2.653-0.396,2.968c-1.086,0.607-2.618,0.597-3.946,0.517c-0.703-0.042-1.365-0.767-1.955-1.128
		c-5.457,4.189-5.748,16.889-0.193,21.891c-4.145,0-7.762,0-12.429,0c4.92-3.588,3.453-8.104,3.597-12.178
		C253.29,352.188,254.35,347.823,249.593,344.641z"/>
	<path display="inline" fill-rule="evenodd" clip-rule="evenodd" fill="#FFFFFF" d="M279.312,342.603
		c2.43,0.304,4.347,0.544,6.264,0.784c0.063,0.375,0.125,0.749,0.188,1.124c-2.03,0.422-4.061,0.843-6.715,1.394
		c0,5.431-0.174,10.867,0.066,16.284c0.142,3.206,1.613,3.786,6.954,3.346c-1.77,3.588-4.803,3.983-7.929,3.452
		c-3.225-0.548-3.947-3.233-4.019-6.063c-0.1-3.988-0.208-7.982-0.108-11.969c0.07-2.828,0.248-5.552-4.573-6.84
		c4.138-1.27,5.676-2.972,5.403-6.059c-0.062-0.699,1.212-1.516,1.87-2.277c0.735,0.855,1.762,1.602,2.131,2.594
		C279.284,339.554,279.159,340.944,279.312,342.603z"/>
</g>
<g id="緑色ロゴ">
	<g id="星屑">
		<g>
			<path fill-rule="evenodd" clip-rule="evenodd" fill="#2C3E2D" d="M233.456,100.708c-2.91,1.428-4.068,2.586-5.497,5.497
				c-1.428-2.91-2.586-4.068-5.497-5.497c2.91-1.428,4.068-2.586,5.497-5.497C229.387,98.122,230.545,99.28,233.456,100.708z"/>
		</g>
		<g>
			<path fill-rule="evenodd" clip-rule="evenodd" fill="#2C3E2D" d="M300.455,126.708c-2.91,1.428-4.067,2.586-5.496,5.497
				c-1.429-2.91-2.586-4.068-5.496-5.497c2.91-1.428,4.067-2.586,5.496-5.497C296.388,124.122,297.545,125.28,300.455,126.708z"/>
		</g>
		<g>
			<path fill-rule="evenodd" clip-rule="evenodd" fill="#2C3E2D" d="M307.455,150.708c-2.91,1.428-4.067,2.586-5.496,5.497
				c-1.429-2.91-2.586-4.068-5.496-5.497c2.91-1.428,4.067-2.586,5.496-5.497C303.388,148.122,304.545,149.28,307.455,150.708z"/>
		</g>
	</g>
	<g id="ロゴ大元">
		<g>
			<path fill-rule="evenodd" clip-rule="evenodd" fill="#2C3E2D" d="M55.349,318.578c4.114-1.713,5.163,0.421,6.127,3.604
				c7.507,24.774,18.652,47.729,34.84,68.056c33.968,42.654,77.725,68.689,131.764,76.839
				c84.417,12.73,166.19-31.091,205.698-101.565c7.764-13.851,14.348-28.188,18.479-43.564c0.844-3.139,2.018-5.328,5.785-3.651
				c-14.97,69.434-84.925,149.011-187.739,155.531C162.786,480.645,76.86,405.861,55.349,318.578z"/>
			<path fill-rule="evenodd" clip-rule="evenodd" fill="#2C3E2D" d="M458.471,202.696c-4.123,1.679-4.877-0.784-5.718-3.569
				c-5.457-18.083-12.411-35.527-22.601-51.531c-32.057-50.348-76.99-81.893-135.779-93.648
				C197.039,34.485,98.4,91.642,65.135,186.052c-1.548,4.393-2.864,8.867-4.277,13.307c-1.131,3.553-1.123,3.556-5.227,2.457
				C70.123,133.649,139.231,47.07,253.715,45.342C362.896,43.694,440.442,122.595,458.471,202.696z"/>
			<path fill-rule="evenodd" clip-rule="evenodd" fill="#2C3E2D" d="M78.984,283.156c3.87-1.743,5.473-0.672,6.816,2.435
				c2.036,4.71,4.354,9.357,7.086,13.694c7.544,11.977,26.886,10.384,34.022,4.268c8.135-6.973,7.881-21.03-1.058-27.566
				c-3.572-2.611-7.873-4.255-11.912-6.193c-6.888-3.308-14.257-5.825-20.67-9.871c-17.664-11.144-16.031-37.036,2.767-46.218
				c13.169-6.433,26.579-4.665,39.799,0.118c1.265,0.458,2.722,2.22,2.898,3.536c0.833,6.239,1.252,12.533,1.816,18.779
				c-3.213,1.697-4.931,1.537-6.129-1.81c-1.395-3.896-3.053-7.783-5.206-11.303c-4.073-6.66-12.052-9.324-20.697-7.435
				c-7.739,1.691-12.941,6.962-13.844,14.491c-0.842,7.021,1.622,12.907,7.478,16.897c3.408,2.323,7.282,3.986,11.017,5.801
				c7.029,3.417,14.382,6.261,21.112,10.18c16.447,9.579,15.401,32.503,1.978,42.943c-4.856,3.777-10.327,5.989-16.313,7.123
				c-11.495,2.177-22.531,0.018-33.429-3.48c-2.903-0.932-4.643-2.468-4.918-5.972C81.064,296.799,79.906,290.073,78.984,283.156z"
				/>
			<path fill-rule="evenodd" clip-rule="evenodd" fill="#2C3E2D" d="M416.981,277.167c-12.142,0-23.748,0-35.644,0
				c-2.581,6.964-5.286,13.752-7.601,20.671c-1.786,5.337-0.765,7.279,4.634,8.887c2.677,0.798,3.051,2.096,2.216,4.781
				c-8.29,0-16.674,0-25.152,0c-0.907-1.992-1.103-3.697,1.28-4.494c6.554-2.191,9.432-7.561,11.716-13.418
				c5.259-13.484,10.457-26.992,15.683-40.489c4.985-12.877,10.008-25.739,14.928-38.642c0.852-2.235,1.825-3.585,4.568-3.604
				c2.861-0.02,3.623,1.636,4.448,3.763c9.99,25.746,20.016,51.478,30.044,77.209c0.967,2.479,2.012,4.928,3.025,7.389
				c1.543,3.744,4.029,6.582,8.087,7.498c2.744,0.62,3.036,2.12,2.118,4.804c-10.941,0-22,0-33.067,0
				c-1.135-2.502-0.414-3.669,2.033-4.607c5.108-1.958,6.111-3.742,4.458-8.729C422.408,291.109,419.602,284.184,416.981,277.167z
				 M399.399,230.793c-0.329,0.033-0.658,0.065-0.987,0.099c-4.832,13.225-9.665,26.45-14.567,39.865c10.454,0,20.177,0,30.745,0
				C409.36,256.999,404.38,243.896,399.399,230.793z"/>
			<path fill-rule="evenodd" clip-rule="evenodd" fill="#2C3E2D" d="M322.903,292.55c0.931-2.004,1.548-3.132,1.995-4.323
				c7.195-19.174,14.37-38.354,21.543-57.536c0.408-1.091,0.791-2.193,1.138-3.306c2.189-7.035,1.652-8.06-5.084-10.933
				c-0.972-0.415-1.579-1.684-2.354-2.558c0.9-0.718,1.787-2.039,2.703-2.059c7.474-0.169,14.954-0.095,22.482-0.095
				c1.096,2.584,0.951,4.203-1.623,4.999c-4.567,1.413-7,4.914-8.632,9.079c-4.372,11.16-8.671,22.349-13.001,33.525
				c-6.375,16.456-12.746,32.913-19.135,49.364c-0.776,1.999-1.341,4.167-4.25,4.144c-2.003-0.016-3.61-0.323-4.365-2.451
				c-0.835-2.353-1.719-4.688-2.624-7.016c-10.019-25.758-20.059-51.508-30.059-77.273c-1.706-4.395-4.145-7.871-9.013-9.285
				c-0.974-0.283-1.499-2.108-2.23-3.222c0.887-0.56,1.768-1.596,2.66-1.606c10.126-0.115,20.253-0.073,30.168-0.073
				c1.287,2.602,0.646,3.676-1.532,4.633c-6.177,2.711-6.74,4.035-4.332,10.348c8.015,21,16.127,41.961,24.212,62.934
				C321.807,290.453,322.147,291.024,322.903,292.55z"/>
			<path fill-rule="evenodd" clip-rule="evenodd" fill="#2C3E2D" d="M242.274,211.85c1.231,2.913,0.512,3.898-1.819,4.602
				c-8.391,2.532-8.632,3.073-8.634,11.94c-0.005,23.819-0.06,47.639-0.093,71.458c-0.008,6.048-0.005,6.055,6.021,6.047
				c5.33-0.007,10.661-0.005,15.99-0.052c9.483-0.085,16.23-4.229,19.646-13.304c0.879-2.336,1.862-4.633,2.766-6.96
				c0.82-2.114,2.242-2.745,5.108-1.543c-0.425,4.796-0.853,9.852-1.326,14.903c-0.264,2.817-0.841,5.627-0.849,8.442
				c-0.01,3.512-1.574,4.509-4.912,4.47c-14.49-0.168-28.982-0.141-43.474-0.17c-7.639-0.016-15.278-0.003-22.984-0.003
				c-1.406-2.521-0.479-3.615,1.889-4.471c6.316-2.283,7.587-3.957,7.614-10.601c0.095-23.819,0.101-47.639,0.077-71.458
				c-0.005-5.5-1.202-6.906-6.539-8.486c-0.638-0.188-1.49-0.119-1.897-0.52c-0.719-0.708-1.502-1.649-1.602-2.564
				c-0.053-0.486,1.216-1.486,1.992-1.613c1.624-0.265,3.317-0.116,4.982-0.117C223.538,211.848,232.845,211.85,242.274,211.85z"/>
			<path fill-rule="evenodd" clip-rule="evenodd" fill="#2C3E2D" d="M294.686,177.242c-17.817,11.221-35.849,10.13-54.167-0.277
				c-2.283,3.629-4.455,7.149-6.704,10.618c-0.721,1.112-1.503,2.278-2.528,3.066c-0.748,0.575-1.94,0.57-2.935,0.824
				c0.059-0.999-0.222-2.203,0.236-2.962c1.97-3.271,4.34-6.308,6.219-9.625c2.391-4.219,1.956-5.364-2.187-8.065
				c-2.088-1.361-4.191-2.7-6.275-4.068c-7.056-4.629-11.135-11.411-13.291-19.318c-2.348-8.614-1.791-17.316-0.328-26.886
				c6.103,4.335,11.36,8.069,17.384,12.349c5.06-22.787,18.809-36.926,41.212-42.48c-6.066,8.705-11.642,17.534-15.729,27.503
				c6.321-4.273,12.642-8.546,20.13-13.608c0.405,4.113,1.092,6.992,0.899,9.81c-1.098,16.067-7.508,29.24-21.74,37.701
				c-3.098,1.841-3.355,3.637-1.679,6.414c6.473,10.721,15.71,17.015,28.406,17.606c3.311,0.154,6.644-0.235,9.968-0.305
				c1.044-0.021,2.094,0.187,3.142,0.29C294.707,176.299,294.696,176.771,294.686,177.242z M230.459,138.395
				c-0.779,3.344-1.615,6.676-2.317,10.036c-0.545,2.611-0.048,4.989,1.594,7.049c4.675-5.765,5.516-11.351,0.673-17.001
				c-3.219-2.551-6.438-5.103-9.658-7.654c-0.386,0.31-0.771,0.619-1.156,0.928c1.855,4.847,3.711,9.694,5.678,14.832
				C227.623,143.884,226.196,139.322,230.459,138.395z M238.266,170.115c0.458-0.163,0.917-0.326,1.375-0.488
				c3.105-6.393,5.139-13.793,5.13-21.145c-0.02-17.385,5.302-33.005,14.977-47.288c0.746-1.101,1.299-2.333,2.417-4.371
				c-16.305,8.427-25.313,20.892-28.279,37.696c-0.264,1.491,0.505,3.48,1.418,4.81c4.306,6.264,5.803,12.977,3.869,20.364
				c-0.588,2.247-1.597,4.409-1.95,6.682C237.043,167.54,237.885,168.863,238.266,170.115z M276.592,179.841
				c-12.487-3.446-22.381-10.168-28.456-22.687c-2.088,5.971-3.816,10.912-5.594,15.996
				C253.159,180.536,264.348,182.698,276.592,179.841z M272.438,110.327c-7.003,5.141-13.465,9.674-19.628,14.583
				c-1.271,1.013-1.425,3.43-2.094,5.201c0.396,0.231,0.792,0.462,1.188,0.693c5.256-3.086,10.356-6.491,15.816-9.162
				C272.289,119.407,273.342,116.077,272.438,110.327z M249.416,141.655c4.591-2.087,8.957-4.334,13.516-6.074
				c5.188-1.98,7.08-5.877,7.769-11.549c-6.244,3.438-11.863,6.874-17.785,9.666C249.34,135.384,248.352,137.583,249.416,141.655z
				 M229.657,163.623c-4.664-10.088-9.328-20.175-14.329-30.99C215.61,145.625,217.857,156.854,229.657,163.623z M251.205,150.349
				c3.993-3.273,8.069-6.615,12.146-9.957c-0.226-0.308-0.452-0.615-0.679-0.923c-3.866,1.752-7.77,3.431-11.588,5.283
				C248.462,146.023,248.283,147.786,251.205,150.349z M233.405,162.541c3.144-4.566,3.588-7.252,1.837-11.437
				C236.324,155.126,230.458,158,233.405,162.541z"/>
			<path fill-rule="evenodd" clip-rule="evenodd" fill="#2C3E2D" d="M160.282,212.288c0.854-0.133,1.816-0.409,2.778-0.412
				c9.664-0.037,19.329-0.091,28.991,0.046c1.17,0.017,2.325,1.138,3.486,1.747c-0.913,0.914-1.667,2.291-2.765,2.668
				c-7.12,2.45-7.985,3.533-7.998,11.158c-0.039,23.161-0.074,46.322-0.107,69.483c-0.01,6.983,0.907,8.06,7.722,10.128
				c1.127,0.343,1.945,1.706,2.905,2.598c-1.106,0.684-2.199,1.936-3.319,1.961c-9.494,0.213-18.993,0.22-28.49,0.243
				c-1.596,0.004-3.824,0.354-3.649-2.091c0.069-0.975,1.662-2.248,2.822-2.669c6.159-2.234,7.432-3.722,7.44-10.117
				c0.031-23.661,0.021-47.322-0.009-70.983c-0.008-6.153-1.156-7.695-7.337-9.474C160.448,215.911,159.017,215.144,160.282,212.288
				z"/>
			<path fill-rule="evenodd" clip-rule="evenodd" fill="#2C3E2D" d="M71.429,318.481c3.242-0.655,3.151,1.631,3.636,3.197
				c3.901,12.613,8.992,24.706,15.609,36.148c31.541,54.534,78.331,87.006,140.69,96.23
				c70.751,10.467,144.182-21.663,186.134-86.519c8.979-13.879,15.951-28.834,20.874-44.687c0.563-1.813,1.649-3.461,2.494-5.186
				c0.581,0.299,1.163,0.598,1.745,0.896c-5.738,20.6-14.78,39.716-27.282,57.186c-30.882,43.152-72.19,70.878-124.487,80.087
				C181.11,475.157,92.393,400.547,71.429,318.481z"/>
			<path fill-rule="evenodd" clip-rule="evenodd" fill="#2C3E2D" d="M441.384,203.454c-0.723-1.413-1.672-2.756-2.134-4.25
				c-6.057-19.57-14.837-37.838-26.756-54.476c-30.968-43.229-72.547-69.632-125.128-78.657
				c-36.004-6.179-70.771-1.858-104.237,12.223c-39.029,16.421-69.278,43.123-90.54,79.844
				c-7.534,13.012-13.867,26.554-18.002,41.067c-0.372,1.306-1.35,2.44-2.379,3.455c-1.867-10.285,16.164-47.789,34.427-70.213
				c34.156-41.938,78.439-66.367,132.298-71.093C347.304,51.846,425.2,128.835,442.51,202.722
				C442.135,202.966,441.759,203.21,441.384,203.454z"/>
			<path fill-rule="evenodd" clip-rule="evenodd" fill="#2C3E2D" d="M155.021,368.4c-5.248,0-9.287,0-13.327,0
				c4.581-3.256,3.346-7.88,3.386-12.101c0.058-5.986,0.21-11.982-0.065-17.956c-0.106-2.297-1.274-4.544-2.192-7.591
				c1.33,0,3.477-0.022,5.624,0.005c3.325,0.043,6.66-0.018,9.973,0.213c5.733,0.4,9.282,2.87,10.254,7.137
				c1.106,4.851-0.953,8.383-4.978,10.977c-0.542,0.349-1.013,0.809-1.702,1.367c3.482,6.031,6.898,11.949,10.209,17.686
				c-5.964,1.632-6.832,1.22-9.816-4.924c-1.379-2.839-3.002-5.562-4.325-8.424c-1.307-2.83-3.242-4.107-6.364-3.251
				C149.295,358.321,150.21,364.557,155.021,368.4z M151.143,333.247c0,5.42,0,10.288,0,15.213
				c4.561,0.082,9.146,0.715,10.802-3.958c0.886-2.501,0.704-6.162-0.542-8.464C159.306,332.163,155.111,332.523,151.143,333.247z"
				/>
			<path fill-rule="evenodd" clip-rule="evenodd" fill="#2C3E2D" d="M314.631,368.617c-2.877,0-6.401,0-10.734,0
				c6.729-5.778,3.337-12.811,3.697-19.187c0.138-2.437-2.155-3.6-4.591-3.602c-2.762-0.002-5.417,1.232-5.664,3.898
				c-0.473,5.106-0.19,10.296,0.024,15.439c0.038,0.89,1.291,1.729,2.413,3.128c-3.878,0-7.2,0-11.971,0
				c4.442-2.384,4.306-5.521,4.268-8.747c-0.092-7.822,0.103-15.649-0.085-23.469c-0.048-2.011-1.084-3.999-1.888-6.761
				c1.535-0.431,3.904-1.096,6.854-1.924c0,6.393,0,12.012,0,18.313c1.985-1.049,3.332-1.885,4.772-2.5
				c5.853-2.501,10.875,0.6,11.174,6.934c0.133,2.824-0.199,5.68,0.072,8.483C313.289,361.902,314.033,365.138,314.631,368.617z"/>
			<path fill-rule="evenodd" clip-rule="evenodd" fill="#2C3E2D" d="M348.604,329.118c2.242-0.447,4.485-0.895,7.329-1.462
				c0,6.055,0,11.637,0,17.76c1.364-0.626,2.089-0.939,2.798-1.286c6.674-3.269,12.901-0.658,14.813,6.475
				c1.514,5.645,0.778,11.037-3.763,15.155c-4.059,3.68-8.757,4.398-13.896,2.078c-1.179-0.533-2.683-0.347-4.823-0.575
				c0-1.823-0.002-4.07,0-6.317c0.008-8.154,0.036-16.309,0.014-24.463c-0.006-2.566,0.779-5.496-3.636-6.355
				C347.826,329.791,348.215,329.454,348.604,329.118z M356.031,356.544c0,1.499-0.009,2.998,0.002,4.497
				c0.019,2.614,1.087,4.448,3.739,5.215c2.693,0.777,4.895,0.237,6.635-2.063c2.774-3.667,3.162-11.44,0.745-15.246
				c-1.644-2.589-4.025-3.45-6.89-2.793c-2.763,0.634-4.231,2.49-4.237,5.392C356.021,353.212,356.024,354.878,356.031,356.544z"/>
			<path fill-rule="evenodd" clip-rule="evenodd" fill="#2C3E2D" d="M334.77,343.757c2.305-0.295,4.524-0.578,6.711-0.857
				c2.542,8.227-1.895,16.8,2.865,24.683c-2.851,0.043-5.803,3.241-8.323-1.076c-1.145,0.607-2.264,1.296-3.455,1.817
				c-6.03,2.637-10.85-0.183-11.215-6.669c-0.206-3.655,0.065-7.339-0.176-10.99c-0.144-2.158-0.868-4.277-1.46-7.008
				c1.576-0.261,3.723-0.615,6.551-1.082c0,6.231-0.236,11.868,0.136,17.465c0.121,1.817,1.438,4.208,2.938,5.085
				c1.332,0.778,3.85,0.218,5.514-0.509c1.063-0.464,2.07-2.269,2.155-3.535c0.279-4.147,0.3-8.334,0.042-12.482
				C336.964,347.162,335.771,345.794,334.77,343.757z"/>
			<path fill-rule="evenodd" clip-rule="evenodd" fill="#2C3E2D" d="M246.887,355.436c-0.002,7.834-5.539,13.769-12.8,13.722
				c-7.05-0.046-11.961-5.433-12.004-13.167c-0.044-7.886,5.038-13.688,12.062-13.774
				C241.192,342.13,246.89,348.041,246.887,355.436z M241.667,356.281c-0.757-2.967-1.041-6.032-2.308-8.615
				c-2.295-4.679-7.749-4.698-10.136-0.056c-2.736,5.32-2.58,11.001,0.138,16.244c2.261,4.362,7.57,4.32,9.93,0.019
				C240.516,361.639,240.873,358.927,241.667,356.281z"/>
			<path fill-rule="evenodd" clip-rule="evenodd" fill="#2C3E2D" d="M196.125,363.251c-3.975,5.402-8.672,7.188-13.718,5.598
				c-4.674-1.473-7.554-5.933-7.653-11.651c-0.075-4.325,0.976-8.249,3.894-11.518c2.912-3.263,7.906-4.332,11.888-2.659
				c4.011,1.686,5.921,5.384,5.343,11.113c-5.138,0-10.363,0-15.492,0C179.229,363.821,184.376,366.753,196.125,363.251z
				 M190.565,351.802c0.137-5.067-1.57-7.646-4.714-7.585c-3.115,0.061-5.354,3.058-5.503,7.585
				C183.617,351.802,186.879,351.802,190.565,351.802z"/>
			<path fill-rule="evenodd" clip-rule="evenodd" fill="#2C3E2D" d="M202.334,360.322c0.475,1.08,0.909,2.18,1.432,3.235
				c1.368,2.762,3.833,3.818,6.61,3.232c1.351-0.285,3.116-1.723,3.42-2.953c0.293-1.188-0.696-3.211-1.763-4.089
				c-1.479-1.219-3.557-1.71-5.378-2.513c-4.443-1.958-6.356-5.02-5.518-8.831c0.879-3.996,4.297-6.476,9.005-6.218
				c2.115,0.115,4.202,0.751,6.58,1.203c0,2.008,0,3.746,0,6.304c-0.922-1.164-1.499-1.757-1.919-2.445
				c-1.62-2.653-4.032-3.566-6.814-2.522c-1.185,0.445-2.447,1.858-2.759,3.068c-0.233,0.903,0.723,2.592,1.638,3.212
				c1.757,1.191,3.853,1.889,5.822,2.762c4.509,2,6.422,4.935,5.705,8.793c-0.67,3.605-3.974,6.309-8.427,6.417
				c-2.79,0.067-5.594-0.44-8.618-0.711c0-2.768,0-5.237,0-7.707C201.678,360.48,202.006,360.401,202.334,360.322z"/>
			<path fill-rule="evenodd" clip-rule="evenodd" fill="#2C3E2D" d="M249.593,344.641c7.155-2.356,7.155-2.356,8.956,1.458
				c1.9-1.244,3.676-2.901,5.767-3.578c1.138-0.368,2.992,0.698,4.155,1.594c0.433,0.334,0.167,2.653-0.396,2.968
				c-1.086,0.607-2.618,0.597-3.946,0.517c-0.703-0.042-1.365-0.767-1.955-1.128c-5.457,4.189-5.748,16.889-0.193,21.891
				c-4.145,0-7.762,0-12.429,0c4.92-3.588,3.453-8.104,3.597-12.178C253.29,352.188,254.35,347.823,249.593,344.641z"/>
			<path fill-rule="evenodd" clip-rule="evenodd" fill="#2C3E2D" d="M279.312,342.603c2.43,0.304,4.347,0.544,6.264,0.784
				c0.063,0.375,0.125,0.749,0.188,1.124c-2.03,0.422-4.061,0.843-6.715,1.394c0,5.431-0.174,10.867,0.066,16.284
				c0.142,3.206,1.613,3.786,6.954,3.346c-1.77,3.588-4.803,3.983-7.929,3.452c-3.225-0.548-3.947-3.233-4.019-6.063
				c-0.1-3.988-0.208-7.982-0.108-11.969c0.07-2.828,0.248-5.552-4.573-6.84c4.138-1.27,5.676-2.972,5.403-6.059
				c-0.062-0.699,1.212-1.516,1.87-2.277c0.735,0.855,1.762,1.602,2.131,2.594C279.284,339.554,279.159,340.944,279.312,342.603z"/>
			<path display="none" fill-rule="evenodd" clip-rule="evenodd" fill="#2C3E2D" d="M288.702,126.728
				c2.455-1.695,4.476-3.09,6.69-4.62c0.83,0.904,2.451,2.67,4.281,4.665c-1.57,1.695-3.073,3.319-4.777,5.159
				C292.996,130.335,291.175,128.805,288.702,126.728z"/>
			<path display="none" fill-rule="evenodd" clip-rule="evenodd" fill="#2C3E2D" d="M301.453,156.47
				c-1.683-1.854-3.211-3.539-4.801-5.291c1.56-2.004,3.04-3.906,4.751-6.104c1.647,1.923,3.282,3.832,4.946,5.776
				C304.791,152.64,303.3,154.351,301.453,156.47z"/>
			<path display="none" fill-rule="evenodd" clip-rule="evenodd" fill="#2C3E2D" d="M226.913,105.585
				c-1.407-1.687-2.561-3.07-3.963-4.751c1.191-1.446,2.601-3.158,4.304-5.225c1.679,1.936,3.137,3.617,4.769,5.499
				C230.326,102.594,228.861,103.877,226.913,105.585z"/>
		</g>
	</g>
</g>
</svg>
